<?xml version="1.0" standalone="no"?>
<!DOCTYPE svg PUBLIC "-//W3C//DTD SVG 20010904//EN"
 "http://www.w3.org/TR/2001/REC-SVG-20010904/DTD/svg10.dtd">
<svg version="1.0" xmlns="http://www.w3.org/2000/svg"
 width="85.000000pt" height="86.000000pt" viewBox="0 0 85.000000 86.000000"
 preserveAspectRatio="xMidYMid meet">

<g transform="translate(0.000000,86.000000) scale(0.100000,-0.100000)"
fill="#000000" stroke="none">
<path d="M435 761 c-3 -5 -1 -12 5 -16 5 -3 10 1 10 9 0 18 -6 21 -15 7z"/>
<path d="M400 749 c0 -5 5 -7 10 -4 6 3 10 8 10 11 0 2 -4 4 -10 4 -5 0 -10
-5 -10 -11z"/>
<path d="M431 714 c0 -11 3 -14 6 -6 3 7 2 16 -1 19 -3 4 -6 -2 -5 -13z"/>
<path d="M408 655 c-3 -14 -1 -28 3 -31 5 -3 9 9 9 25 0 38 -6 40 -12 6z"/>
<path d="M430 651 c0 -17 2 -31 4 -31 8 0 13 51 5 56 -5 3 -9 -9 -9 -25z"/>
<path d="M390 559 c0 -5 5 -7 10 -4 6 3 10 8 10 11 0 2 -4 4 -10 4 -5 0 -10
-5 -10 -11z"/>
<path d="M470 559 c0 -6 6 -9 14 -6 7 3 19 0 25 -6 9 -9 11 -8 6 6 -8 19 -45
24 -45 6z"/>
<path d="M465 519 c-10 -11 -26 -17 -35 -14 -8 4 1 -10 19 -29 19 -20 37 -36
40 -36 2 0 -6 11 -19 25 l-23 24 27 10 c14 6 26 17 26 26 0 20 -11 18 -35 -6z"/>
<path d="M354 511 c11 -11 23 -21 28 -21 14 0 -1 19 -25 31 -22 12 -22 12 -3
-10z"/>
<path d="M393 467 c-23 -29 -26 -41 -5 -23 12 10 28 16 37 13 21 -9 19 0 -4
12 -13 8 -22 7 -28 -2z"/>
<path d="M455 404 c-16 -18 -22 -20 -35 -11 -13 10 -13 10 -2 -5 11 -14 17
-15 33 -5 17 11 33 36 27 42 -2 2 -12 -8 -23 -21z"/>
<path d="M360 412 c0 -12 19 -26 26 -19 2 2 -2 10 -11 17 -9 8 -15 8 -15 2z"/>
<path d="M392 358 c-19 -19 -14 -33 6 -15 10 10 22 14 27 10 4 -5 5 -2 1 5 -9
15 -19 15 -34 0z"/>
<path d="M450 356 c0 -2 8 -10 18 -17 15 -13 16 -12 3 4 -13 16 -21 21 -21 13z"/>
</g>
</svg>
